<?xml version="1.0" standalone="no"?><!DOCTYPE svg PUBLIC "-//W3C//DTD SVG 1.1//EN" "http://www.w3.org/Graphics/SVG/1.1/DTD/svg11.dtd"><svg t="1534238399959" class="icon" style="" viewBox="0 0 1024 1024" version="1.1" xmlns="http://www.w3.org/2000/svg" p-id="804" xmlns:xlink="http://www.w3.org/1999/xlink" width="200" height="200"><defs><style type="text/css"></style></defs><path d="M510.34774011 1.99419013c-280.73916589 0-508.33091568 227.59174978-508.33091568 508.32975533 0 280.75077286 227.59174978 508.33439787 508.33091568 508.33439785 280.75077286 0 508.33555823-227.58362502 508.33555824-508.33439785C1018.68329835 229.58593992 791.09851295 1.99419013 510.34774011 1.99419013L510.34774011 1.99419013 510.34774011 1.99419013zM510.34774011 955.12727985c-245.64648063 0-444.79056709-199.1429261-444.79056709-444.80333439 0-245.64764099 199.14524681-444.78360268 444.79056709-444.78360269 245.65228355 0 444.80217405 199.13596171 444.80217404 444.78360269C955.14991302 755.9831934 756.00002366 955.12727985 510.34774011 955.12727985L510.34774011 955.12727985 510.34774011 955.12727985zM510.34774011 955.12727985" fill="#707070" p-id="805"></path></svg>