<?xml version="1.0" standalone="no"?><!DOCTYPE svg PUBLIC "-//W3C//DTD SVG 1.1//EN" "http://www.w3.org/Graphics/SVG/1.1/DTD/svg11.dtd"><svg t="1534238141514" class="icon" style="" viewBox="0 0 1024 1024" version="1.1" xmlns="http://www.w3.org/2000/svg" p-id="2055" xmlns:xlink="http://www.w3.org/1999/xlink" width="200" height="200"><defs><style type="text/css"></style></defs><path d="M512 1024c136.752 0 265.328-53.264 362.016-149.968C970.736 777.328 1024 648.752 1024 512s-53.264-265.328-149.968-362.016C777.328 53.264 648.752 0 512 0S246.672 53.264 149.984 149.968C53.264 246.672 0 375.248 0 512s53.264 265.328 149.968 362.016C246.672 970.736 375.248 1024 512 1024zM195.232 195.232C279.84 110.608 392.336 64 512 64s232.16 46.608 316.768 131.232C913.392 279.84 960 392.336 960 512s-46.608 232.16-131.232 316.768C744.16 913.392 631.664 960 512 960s-232.16-46.608-316.768-131.232C110.608 744.16 64 631.664 64 512S110.608 279.84 195.232 195.232z" fill="#1296db" p-id="2056"></path><path d="M382.992 768c0.336 0 0.672 0 1.008 0 8.688 0 17.024-3.536 23.072-9.824l400-416c12.24-12.736 11.856-32.992-0.896-45.248-12.752-12.256-32.992-11.84-45.248 0.896L385.52 688.256l-153.088-180.928c-11.424-13.504-31.616-15.184-45.104-3.76-13.488 11.408-15.168 31.616-3.76 45.104l176 208C365.424 763.6 373.936 768 382.992 768z" fill="#1296db" p-id="2057"></path></svg>