<?xml version="1.0" standalone="no"?><!DOCTYPE svg PUBLIC "-//W3C//DTD SVG 1.1//EN" "http://www.w3.org/Graphics/SVG/1.1/DTD/svg11.dtd"><svg t="1534488319330" class="icon" style="" viewBox="0 0 1024 1024" version="1.1" xmlns="http://www.w3.org/2000/svg" p-id="4440" xmlns:xlink="http://www.w3.org/1999/xlink" width="200" height="200"><defs><style type="text/css"></style></defs><path d="M715.79648 936.35584H308.1728c-56.21248 0-101.94432-45.61408-101.94432-101.69856V299.33056c0-14.06976 11.4176-25.48224 25.47712-25.48224s25.48224 11.41248 25.48224 25.48224v535.32672c0 27.96544 22.86592 50.7392 50.98496 50.7392h407.62368c28.13952 0 51.01056-22.77376 51.01056-50.7392V299.33056a25.48736 25.48736 0 0 1 25.48224-25.48224 25.48736 25.48736 0 0 1 25.47712 25.48224v535.32672c0 56.08448-45.75744 101.69856-101.96992 101.69856z m-76.40064-152.8832a25.48224 25.48224 0 0 1-25.47712-25.48224V401.2544a25.4976 25.4976 0 0 1 25.47712-25.48224 25.4976 25.4976 0 0 1 25.48736 25.48224v356.736a25.48224 25.48224 0 0 1-25.48736 25.47712z m-127.40096 0a25.48224 25.48224 0 0 1-25.47712-25.48224V401.2544a25.49248 25.49248 0 0 1 25.47712-25.48224 25.49248 25.49248 0 0 1 25.48224 25.48224v356.736A25.47712 25.47712 0 0 1 512 783.4624z m-127.40608 0a25.47712 25.47712 0 0 1-25.47712-25.48224V401.2544a25.48736 25.48736 0 0 1 25.47712-25.48224 25.49248 25.49248 0 0 1 25.48224 25.48224v356.736a25.48224 25.48224 0 0 1-25.48224 25.47712zM932.43904 248.36096H91.56096c-14.05952 0-25.48224-11.40736-25.48224-25.47712s11.42272-25.48224 25.48224-25.48224h242.06848v-50.8416c0-42.2144 34.39104-76.56448 76.66688-76.56448h203.4176c42.28608 0 76.6464 34.3552 76.6464 76.5696v50.83648h242.0736c14.05952 0 25.48224 11.40736 25.48224 25.48224s-11.42272 25.47712-25.47712 25.47712zM384.5888 197.4016h254.80704v-50.83648c0-14.11584-11.52-25.6-25.6768-25.6H410.29632c-14.1824 0-25.7024 11.48416-25.7024 25.6v50.8416z" p-id="4441" fill="#d81e06"></path></svg>